<svg viewBox="0 0 24 24" aria-hidden="true" fill="none" stroke="currentColor" stroke-width="2" stroke-linecap="round" stroke-linejoin="round" xmlns="http://www.w3.org/2000/svg">
 <path d="M10.197 9.5C11.697 5.99998 5.69685 2.49998 3.69697 4C1.6971 5.50002 4.19685 12.5 8.69697 12C8.99297 12.296 9.33102 12.634 9.69702 13M9.69702 13L5.19708 17.5C4.86375 17.8333 4.39708 18.7 5.19708 19.5C5.99708 20.3 6.86371 19.8333 7.19702 19.5L11.697 15M9.69702 13C10.3077 13.6107 10.9962 14.2992 11.697 15M11.697 15C14.1234 17.4265 16.697 20 16.697 20C17.0303 20.3333 17.897 20.8 18.697 20C19.497 19.2 19.0303 18.3333 18.697 18L13.697 13M13.697 13L11.697 11L13.697 8.99998C13.3637 8.33332 12.897 6.8 13.697 5.99998C14.497 5.19996 16.0303 3.66665 16.697 3M13.697 13L14.5 12.5M18.697 5L16.197 7.5M20.697 7C19.8637 7.83333 18.097 9.6 17.697 10C17.297 10.4 16.5304 10.5 16.197 10.5"/>
</svg>