<?xml version="1.0" encoding="UTF-8"?>
<svg id="Layer_1" xmlns="http://www.w3.org/2000/svg" version="1.1" viewBox="0 0 24 24">
  <!-- Generator: Adobe Illustrator 29.7.1, SVG Export Plug-In . SVG Version: 2.1.1 Build 8)  -->
  <defs>
    <style>
      .st0 {
        fill: none;
        stroke: #000;
        stroke-linecap: round;
        stroke-linejoin: round;
        stroke-width: 2px;
      }
    </style>
  </defs>
  <path class="st0" d="M12,1c3,0,7,0,9,2s2,6,2,9,0,7-2,9-6,2-9,2-7,0-9-2S1,15,1,12,1,5,3,3,9,1,12,1Z"/>
  <path class="st0" d="M12,1c1.09,0,3.27,1,4,3s1,5,1,8-.27,6-1,8-2.91,3-4,3-3.27-1-4-3-1-5-1-8,.27-6,1-8c.73-2,2.91-3,4-3Z"/>
  <path class="st0" d="M1,10s3-2,11-2,11,2,11,2"/>
  <path class="st0" d="M1,14s3,2,11,2,11-2,11-2"/>
</svg>