<?xml version="1.0" encoding="UTF-8"?>
<svg id="Layer_1" xmlns="http://www.w3.org/2000/svg" version="1.1" viewBox="0 0 24 24">
  <!-- Generator: Adobe Illustrator 29.7.1, SVG Export Plug-In . SVG Version: 2.1.1 Build 8)  -->
  <defs>
    <style>
      .st0 {
        fill: none;
        stroke: #000;
        stroke-linecap: round;
        stroke-linejoin: round;
        stroke-width: 2px;
      }
    </style>
  </defs>
  <path class="st0" d="M12,1c3,0,7,0,9,2s2,6,2,9,0,7-2,9-6,2-9,2-7,0-9-2S1,15,1,12,1,5,3,3,9,1,12,1Z"/>
  <path class="st0" d="M9.5 8.96533C9.5 8.48805 9.5 8.24941 9.59974 8.11618C9.68666 8.00007 9.81971 7.92744 9.96438 7.9171C10.1304 7.90525 10.3311 8.03429 10.7326 8.29239L15.4532 11.3271C15.8016 11.551 15.9758 11.663 16.0359 11.8054C16.0885 11.9298 16.0885 12.0702 16.0359 12.1946C15.9758 12.337 15.8016 12.449 15.4532 12.6729L10.7326 15.7076C10.3311 15.9657 10.1304 16.0948 9.96438 16.0829C9.81971 16.0726 9.68666 15.9999 9.59974 15.8838C9.5 15.7506 9.5 15.512 9.5 15.0347V8.96533Z" />
</svg>