<?xml version="1.0" encoding="UTF-8"?>
<svg id="Layer_1" xmlns="http://www.w3.org/2000/svg" version="1.1" viewBox="0 0 24 24">
  <!-- Generator: Adobe Illustrator 29.7.1, SVG Export Plug-In . SVG Version: 2.1.1 Build 8)  -->
  <defs>
    <style>
      .st0 {
        stroke-width: 20px;
      }

      .st0, .st1 {
        fill: none;
        stroke: #000;
        stroke-linecap: round;
        stroke-linejoin: round;
      }

      .st1 {
        stroke-width: 2px;
      }
    </style>
  </defs>
  <path class="st0" d="M12,40c30,0,70,0,90,20s20,60,20,90,0,70-20,90-70,20-100,20-60,0-80-20-20-60-20-90,0-70,20-90S-18,40,12,40Z"/>
  <path class="st1" d="M12,1c3,0,7,0,9,2s2,6,2,9,0,7-2,9-7,2-10,2-6,0-8-2S1,15,1,12s0-7,2-9S9,1,12,1Z"/>
</svg>